# xmcd
#
# Track frame offsets:
# 150
# 16856
# 36130
# 47039
# 61248
# 78333
# 99838
# 115786
# 132141
# 143964
# 160943
# 175191
# 187821
# 198463
# 214149
# 226369
# 239046
# 257490
# 269459
# 289898
#
# Disc length: 4027 seconds
#
#
# Revision: 0
# Processed by: cddbd v1.5.2PL0 Copyright (c) Steve Scherf et al.
# Submitted via: FreeRIP 2.942 
#
DISCID=160fb914
DTITLE=liu and leu as 20 mais
DYEAR=1900
DGENRE=sertanejas
TTITLE0=Boiadeiro errante
TTITLE1=A Sementinha
TTITLE2=Caminheiro
TTITLE3=Prato do dia
TTITLE4=Rei da café
TTITLE5=Legítimo Doutor
TTITLE6=Jeitõa de caipira
TTITLE7=Velho pouso de boiada
TTITLE8=Tardes morenas de mato grosso
TTITLE9=Berrante de ouro
TTITLE10=Capricho do destino
TTITLE11=Buscando a felicidade
TTITLE12=Dona Saudade
TTITLE13=O ipê e o prisioneiro
TTITLE14=Pedido do filho
TTITLE15=Mãe de carvão
TTITLE16=O juiz e o reu
TTITLE17=Paineira velha
TTITLE18=A volta que o mundo dá
TTITLE19=Rei da capa
EXTD=
EXTT0=
EXTT1=
EXTT2=
EXTT3=
EXTT4=
EXTT5=
EXTT6=
EXTT7=
EXTT8=
EXTT9=
EXTT10=
EXTT11=
EXTT12=
EXTT13=
EXTT14=
EXTT15=
EXTT16=
EXTT17=
EXTT18=
EXTT19=
PLAYORDER=
